# xmcd
#
# Track frame offsets: 
#        150
#        28354
#        61093
#        92674
#        122144
#        137500
#        174884
#        194335
#        208251
#        231510
#        272659
#        290903
#
# Disc length: 4230 seconds
#
# Revision: 2
# Processed by: cddbd v1.5.2PL0 Copyright (c) Steve Scherf et al.
# Submitted via: ExactAudioCopy v0.95b3
#
DISCID=b810840c
DTITLE=Snowy White and The White Flames - Live Flames
DYEAR=2007
DGENRE=Blues
TTITLE0=I'll Be Moving On
TTITLE1=That Ain't Right
TTITLE2=What I'm Searching For
TTITLE3=Land Of Plenty
TTITLE4=Time Waits For No Man
TTITLE5=A Miracle I Need
TTITLE6=Wintersong
TTITLE7=The Emmerpeirissa Express
TTITLE8=White Flames Blues
TTITLE9=American Dream
TTITLE10=Long Grey Mare
TTITLE11=That's When I'll Stop Loving You
EXTD=YEAR: 2007
EXTT0=
EXTT1=
EXTT2=
EXTT3=
EXTT4=
EXTT5=
EXTT6=
EXTT7=
EXTT8=
EXTT9=
EXTT10=
EXTT11=
PLAYORDER=
